<mxfile host="65bd71144e">
    <diagram id="DYdMffh3PidcgBAZlkbQ" name="Page-1">
        <mxGraphModel dx="1154" dy="839" grid="1" gridSize="10" guides="1" tooltips="1" connect="1" arrows="1" fold="1" page="1" pageScale="1" pageWidth="2000" pageHeight="1100" math="0" shadow="0">
            <root>
                <mxCell id="0"/>
                <mxCell id="1" parent="0"/>
                <mxCell id="65" value="Customer" style="rounded=0;whiteSpace=wrap;html=1;" parent="1" vertex="1">
                    <mxGeometry x="640" width="80" height="80" as="geometry"/>
                </mxCell>
                <mxCell id="69" value="1.0" style="swimlane;childLayout=stackLayout;horizontal=1;startSize=30;horizontalStack=0;rounded=1;fontSize=14;fontStyle=0;strokeWidth=2;resizeParent=0;resizeLast=1;shadow=0;dashed=0;align=center;" parent="1" vertex="1">
                    <mxGeometry x="600" y="200" width="160" height="95" as="geometry"/>
                </mxCell>
                <mxCell id="70" value="FreEzMenu&#10;Kiosk/Digital Menu" style="align=center;strokeColor=none;fillColor=none;spacingLeft=4;fontSize=12;verticalAlign=middle;resizable=0;rotatable=0;part=1;" parent="69" vertex="1">
                    <mxGeometry y="30" width="160" height="65" as="geometry"/>
                </mxCell>
                <mxCell id="71" value="View Food&lt;br&gt;Menu" style="text;html=1;strokeColor=none;fillColor=none;align=center;verticalAlign=middle;whiteSpace=wrap;rounded=0;" parent="1" vertex="1">
                    <mxGeometry x="619" y="130" width="60" height="30" as="geometry"/>
                </mxCell>
                <mxCell id="72" value="" style="endArrow=classic;html=1;exitX=0.5;exitY=1;exitDx=0;exitDy=0;entryX=0.5;entryY=0;entryDx=0;entryDy=0;" parent="1" source="65" target="69" edge="1">
                    <mxGeometry width="50" height="50" relative="1" as="geometry">
                        <mxPoint x="670" y="160" as="sourcePoint"/>
                        <mxPoint x="720" y="110" as="targetPoint"/>
                    </mxGeometry>
                </mxCell>
                <mxCell id="73" value="1.1" style="swimlane;childLayout=stackLayout;horizontal=1;startSize=30;horizontalStack=0;rounded=1;fontSize=14;fontStyle=0;strokeWidth=2;resizeParent=0;resizeLast=1;shadow=0;dashed=0;align=center;" parent="1" vertex="1">
                    <mxGeometry x="480" y="400" width="160" height="120" as="geometry"/>
                </mxCell>
                <mxCell id="74" value="Display&#10;Digital Menu/Kiosk" style="align=center;strokeColor=none;fillColor=none;spacingLeft=4;fontSize=12;verticalAlign=middle;resizable=0;rotatable=0;part=1;" parent="73" vertex="1">
                    <mxGeometry y="30" width="160" height="90" as="geometry"/>
                </mxCell>
                <mxCell id="76" value="1.2" style="swimlane;childLayout=stackLayout;horizontal=1;startSize=30;horizontalStack=0;rounded=1;fontSize=14;fontStyle=0;strokeWidth=2;resizeParent=0;resizeLast=1;shadow=0;dashed=0;align=center;" parent="1" vertex="1">
                    <mxGeometry x="720" y="400" width="160" height="120" as="geometry"/>
                </mxCell>
                <mxCell id="77" value="Input Order" style="align=center;strokeColor=none;fillColor=none;spacingLeft=4;fontSize=12;verticalAlign=middle;resizable=0;rotatable=0;part=1;" parent="76" vertex="1">
                    <mxGeometry y="30" width="160" height="90" as="geometry"/>
                </mxCell>
                <mxCell id="79" value="" style="edgeStyle=segmentEdgeStyle;endArrow=classic;html=1;curved=0;rounded=0;endSize=8;startSize=8;entryX=0.75;entryY=0;entryDx=0;entryDy=0;exitX=0.25;exitY=1;exitDx=0;exitDy=0;" parent="1" source="70" target="73" edge="1">
                    <mxGeometry width="50" height="50" relative="1" as="geometry">
                        <mxPoint x="740" y="380" as="sourcePoint"/>
                        <mxPoint x="790" y="330" as="targetPoint"/>
                        <Array as="points">
                            <mxPoint x="640" y="350"/>
                            <mxPoint x="600" y="350"/>
                        </Array>
                    </mxGeometry>
                </mxCell>
                <mxCell id="80" value="" style="edgeStyle=segmentEdgeStyle;endArrow=classic;html=1;curved=0;rounded=0;endSize=8;startSize=8;entryX=0.5;entryY=0;entryDx=0;entryDy=0;exitX=0.75;exitY=1;exitDx=0;exitDy=0;" parent="1" source="70" target="76" edge="1">
                    <mxGeometry width="50" height="50" relative="1" as="geometry">
                        <mxPoint x="650" y="305" as="sourcePoint"/>
                        <mxPoint x="569.9999999999998" y="410" as="targetPoint"/>
                        <Array as="points">
                            <mxPoint x="720" y="350"/>
                            <mxPoint x="800" y="350"/>
                        </Array>
                    </mxGeometry>
                </mxCell>
                <mxCell id="81" value="Show Food Items" style="text;html=1;strokeColor=none;fillColor=none;align=center;verticalAlign=middle;whiteSpace=wrap;rounded=0;" parent="1" vertex="1">
                    <mxGeometry x="558" y="315" width="80" height="30" as="geometry"/>
                </mxCell>
                <mxCell id="82" value="Selected Food Items" style="text;html=1;strokeColor=none;fillColor=none;align=center;verticalAlign=middle;whiteSpace=wrap;rounded=0;" parent="1" vertex="1">
                    <mxGeometry x="720" y="315" width="90" height="30" as="geometry"/>
                </mxCell>
                <mxCell id="83" value="&amp;nbsp;D2&lt;span style=&quot;white-space: pre;&quot;&gt;&#9;&lt;/span&gt;&amp;nbsp; &amp;nbsp; &amp;nbsp;Order List" style="html=1;dashed=0;whitespace=wrap;shape=mxgraph.dfd.dataStoreID;align=left;spacingLeft=3;points=[[0,0],[0.5,0],[1,0],[0,0.5],[1,0.5],[0,1],[0.5,1],[1,1]];rounded=0;shadow=0;sketch=0;" parent="1" vertex="1">
                    <mxGeometry x="920" y="560" width="120" height="40" as="geometry"/>
                </mxCell>
                <mxCell id="84" value="&amp;nbsp;D1&lt;span style=&quot;white-space: pre;&quot;&gt;&#9;&lt;/span&gt;&amp;nbsp; &amp;nbsp; Menu Items" style="html=1;dashed=0;whitespace=wrap;shape=mxgraph.dfd.dataStoreID;align=left;spacingLeft=3;points=[[0,0],[0.5,0],[1,0],[0,0.5],[1,0.5],[0,1],[0.5,1],[1,1]];rounded=0;shadow=0;sketch=0;" parent="1" vertex="1">
                    <mxGeometry x="710" y="590" width="120" height="40" as="geometry"/>
                </mxCell>
                <mxCell id="86" value="" style="edgeStyle=segmentEdgeStyle;endArrow=classic;html=1;curved=0;rounded=0;endSize=8;startSize=8;entryX=0.5;entryY=0;entryDx=0;entryDy=0;exitX=1;exitY=0.75;exitDx=0;exitDy=0;" parent="1" source="77" target="83" edge="1">
                    <mxGeometry width="50" height="50" relative="1" as="geometry">
                        <mxPoint x="1020" y="860" as="sourcePoint"/>
                        <mxPoint x="1070" y="810" as="targetPoint"/>
                    </mxGeometry>
                </mxCell>
                <mxCell id="87" value="Order Details" style="text;html=1;strokeColor=none;fillColor=none;align=center;verticalAlign=middle;whiteSpace=wrap;rounded=0;" parent="1" vertex="1">
                    <mxGeometry x="890" y="500" width="90" height="30" as="geometry"/>
                </mxCell>
                <mxCell id="88" value="2.3" style="swimlane;childLayout=stackLayout;horizontal=1;startSize=30;horizontalStack=0;rounded=1;fontSize=14;fontStyle=0;strokeWidth=2;resizeParent=0;resizeLast=1;shadow=0;dashed=0;align=center;" parent="1" vertex="1">
                    <mxGeometry x="900" y="660" width="160" height="70" as="geometry"/>
                </mxCell>
                <mxCell id="89" value="Get Order Details" style="align=center;strokeColor=none;fillColor=none;spacingLeft=4;fontSize=12;verticalAlign=middle;resizable=0;rotatable=0;part=1;" parent="88" vertex="1">
                    <mxGeometry y="30" width="160" height="40" as="geometry"/>
                </mxCell>
                <mxCell id="90" value="Order&lt;br&gt;Details" style="text;html=1;strokeColor=none;fillColor=none;align=center;verticalAlign=middle;whiteSpace=wrap;rounded=0;" parent="1" vertex="1">
                    <mxGeometry x="980" y="620" width="60" height="30" as="geometry"/>
                </mxCell>
                <mxCell id="91" value="" style="endArrow=classic;html=1;exitX=0.5;exitY=1;exitDx=0;exitDy=0;entryX=0.5;entryY=0;entryDx=0;entryDy=0;" parent="1" source="83" target="88" edge="1">
                    <mxGeometry width="50" height="50" relative="1" as="geometry">
                        <mxPoint x="970" y="680" as="sourcePoint"/>
                        <mxPoint x="1020" y="630" as="targetPoint"/>
                    </mxGeometry>
                </mxCell>
                <mxCell id="92" value="&amp;nbsp;D4&lt;span style=&quot;white-space: pre;&quot;&gt;&#9;&lt;/span&gt;&amp;nbsp; Order Statistics" style="html=1;dashed=0;whitespace=wrap;shape=mxgraph.dfd.dataStoreID;align=left;spacingLeft=3;points=[[0,0],[0.5,0],[1,0],[0,0.5],[1,0.5],[0,1],[0.5,1],[1,1]];rounded=0;shadow=0;sketch=0;" parent="1" vertex="1">
                    <mxGeometry x="915" y="780" width="130" height="40" as="geometry"/>
                </mxCell>
                <mxCell id="93" value="" style="endArrow=classic;html=1;entryX=0.5;entryY=0;entryDx=0;entryDy=0;exitX=0.5;exitY=1;exitDx=0;exitDy=0;" parent="1" source="89" target="92" edge="1">
                    <mxGeometry width="50" height="50" relative="1" as="geometry">
                        <mxPoint x="1000" y="800" as="sourcePoint"/>
                        <mxPoint x="1050" y="750" as="targetPoint"/>
                    </mxGeometry>
                </mxCell>
                <mxCell id="94" value="Order&lt;br&gt;Details" style="text;html=1;strokeColor=none;fillColor=none;align=center;verticalAlign=middle;whiteSpace=wrap;rounded=0;" parent="1" vertex="1">
                    <mxGeometry x="980" y="740" width="60" height="30" as="geometry"/>
                </mxCell>
                <mxCell id="96" value="2.4" style="swimlane;childLayout=stackLayout;horizontal=1;startSize=30;horizontalStack=0;rounded=1;fontSize=14;fontStyle=0;strokeWidth=2;resizeParent=0;resizeLast=1;shadow=0;dashed=0;align=center;" parent="1" vertex="1">
                    <mxGeometry x="900" y="880" width="160" height="70" as="geometry"/>
                </mxCell>
                <mxCell id="97" value="Generate Orders&#10;Report" style="align=center;strokeColor=none;fillColor=none;spacingLeft=4;fontSize=12;verticalAlign=middle;resizable=0;rotatable=0;part=1;" parent="96" vertex="1">
                    <mxGeometry y="30" width="160" height="40" as="geometry"/>
                </mxCell>
                <mxCell id="98" value="" style="endArrow=classic;html=1;entryX=0.5;entryY=0;entryDx=0;entryDy=0;exitX=0.5;exitY=1;exitDx=0;exitDy=0;" parent="1" source="92" target="96" edge="1">
                    <mxGeometry width="50" height="50" relative="1" as="geometry">
                        <mxPoint x="1050" y="870" as="sourcePoint"/>
                        <mxPoint x="1100" y="820" as="targetPoint"/>
                    </mxGeometry>
                </mxCell>
                <mxCell id="99" value="Send Order&lt;br&gt;Details" style="text;html=1;strokeColor=none;fillColor=none;align=center;verticalAlign=middle;whiteSpace=wrap;rounded=0;" parent="1" vertex="1">
                    <mxGeometry x="980" y="834" width="60" height="30" as="geometry"/>
                </mxCell>
                <mxCell id="100" value="Establishment Owner" style="rounded=0;whiteSpace=wrap;html=1;" parent="1" vertex="1">
                    <mxGeometry x="621" y="1000" width="90" height="80" as="geometry"/>
                </mxCell>
                <mxCell id="101" value="&lt;span style=&quot;&quot;&gt;Total orders,&lt;/span&gt;&lt;br style=&quot;&quot;&gt;&lt;span style=&quot;&quot;&gt;total orders taken,&lt;/span&gt;&lt;br style=&quot;&quot;&gt;&lt;span style=&quot;&quot;&gt;total orders canceled,&lt;/span&gt;&lt;br style=&quot;&quot;&gt;&lt;span style=&quot;&quot;&gt;total earnings&lt;/span&gt;" style="text;html=1;strokeColor=none;fillColor=none;align=center;verticalAlign=middle;whiteSpace=wrap;rounded=0;" parent="1" vertex="1">
                    <mxGeometry x="850" y="960" width="120" height="75" as="geometry"/>
                </mxCell>
                <mxCell id="102" value="" style="edgeStyle=segmentEdgeStyle;endArrow=classic;html=1;curved=0;rounded=0;endSize=8;startSize=8;entryX=1;entryY=0.5;entryDx=0;entryDy=0;exitX=0.5;exitY=1;exitDx=0;exitDy=0;" parent="1" source="97" target="100" edge="1">
                    <mxGeometry width="50" height="50" relative="1" as="geometry">
                        <mxPoint x="980" y="1020" as="sourcePoint"/>
                        <mxPoint x="1030" y="970" as="targetPoint"/>
                        <Array as="points">
                            <mxPoint x="980" y="1040"/>
                        </Array>
                    </mxGeometry>
                </mxCell>
                <mxCell id="103" value="2.2" style="swimlane;childLayout=stackLayout;horizontal=1;startSize=30;horizontalStack=0;rounded=1;fontSize=14;fontStyle=0;strokeWidth=2;resizeParent=0;resizeLast=1;shadow=0;dashed=0;align=center;" parent="1" vertex="1">
                    <mxGeometry x="690" y="690" width="160" height="70" as="geometry"/>
                </mxCell>
                <mxCell id="104" value="Modify Menu Items" style="align=center;strokeColor=none;fillColor=none;spacingLeft=4;fontSize=12;verticalAlign=middle;resizable=0;rotatable=0;part=1;" parent="103" vertex="1">
                    <mxGeometry y="30" width="160" height="40" as="geometry"/>
                </mxCell>
                <mxCell id="105" value="2.1" style="swimlane;childLayout=stackLayout;horizontal=1;startSize=30;horizontalStack=0;rounded=1;fontSize=14;fontStyle=0;strokeWidth=2;resizeParent=0;resizeLast=1;shadow=0;dashed=0;align=center;" parent="1" vertex="1">
                    <mxGeometry x="480" y="690" width="160" height="70" as="geometry"/>
                </mxCell>
                <mxCell id="106" value="Design the Kiosk" style="align=center;strokeColor=none;fillColor=none;spacingLeft=4;fontSize=12;verticalAlign=middle;resizable=0;rotatable=0;part=1;" parent="105" vertex="1">
                    <mxGeometry y="30" width="160" height="40" as="geometry"/>
                </mxCell>
                <mxCell id="107" value="" style="edgeStyle=elbowEdgeStyle;elbow=vertical;endArrow=classic;html=1;curved=0;rounded=0;endSize=8;startSize=8;exitX=0.75;exitY=0;exitDx=0;exitDy=0;entryX=0.5;entryY=1;entryDx=0;entryDy=0;" edge="1" parent="1" source="100" target="103">
                    <mxGeometry width="50" height="50" relative="1" as="geometry">
                        <mxPoint x="870" y="790" as="sourcePoint"/>
                        <mxPoint x="920" y="740" as="targetPoint"/>
                    </mxGeometry>
                </mxCell>
                <mxCell id="108" value="" style="edgeStyle=elbowEdgeStyle;elbow=vertical;endArrow=classic;html=1;curved=0;rounded=0;endSize=8;startSize=8;entryX=0.5;entryY=1;entryDx=0;entryDy=0;exitX=0.25;exitY=0;exitDx=0;exitDy=0;" edge="1" parent="1" source="100" target="106">
                    <mxGeometry width="50" height="50" relative="1" as="geometry">
                        <mxPoint x="680" y="890" as="sourcePoint"/>
                        <mxPoint x="730" y="840" as="targetPoint"/>
                    </mxGeometry>
                </mxCell>
                <mxCell id="109" value="&lt;span style=&quot;&quot;&gt;Item name,&lt;/span&gt;&lt;br style=&quot;&quot;&gt;&lt;span style=&quot;&quot;&gt;Description,&lt;/span&gt;&lt;br style=&quot;&quot;&gt;&lt;span style=&quot;&quot;&gt;Price&lt;/span&gt;" style="text;html=1;strokeColor=none;fillColor=none;align=center;verticalAlign=middle;whiteSpace=wrap;rounded=0;" vertex="1" parent="1">
                    <mxGeometry x="700" y="840" width="70" height="35" as="geometry"/>
                </mxCell>
                <mxCell id="110" value="&lt;span style=&quot;&quot;&gt;Layout,&lt;/span&gt;&lt;br style=&quot;&quot;&gt;&lt;span style=&quot;&quot;&gt;Images,&lt;/span&gt;&lt;br style=&quot;&quot;&gt;&lt;span style=&quot;&quot;&gt;Colors&lt;/span&gt;" style="text;html=1;strokeColor=none;fillColor=none;align=center;verticalAlign=middle;whiteSpace=wrap;rounded=0;" vertex="1" parent="1">
                    <mxGeometry x="561" y="840" width="70" height="35" as="geometry"/>
                </mxCell>
                <mxCell id="111" value="&lt;span style=&quot;&quot;&gt;Item name,&lt;/span&gt;&lt;br style=&quot;&quot;&gt;&lt;span style=&quot;&quot;&gt;Description,&lt;/span&gt;&lt;br style=&quot;&quot;&gt;&lt;span style=&quot;&quot;&gt;Price&lt;/span&gt;" style="text;html=1;strokeColor=none;fillColor=none;align=center;verticalAlign=middle;whiteSpace=wrap;rounded=0;" vertex="1" parent="1">
                    <mxGeometry x="780" y="640" width="70" height="35" as="geometry"/>
                </mxCell>
                <mxCell id="112" value="" style="endArrow=classic;html=1;exitX=0.5;exitY=0;exitDx=0;exitDy=0;entryX=0.5;entryY=1;entryDx=0;entryDy=0;" edge="1" parent="1" source="103" target="84">
                    <mxGeometry width="50" height="50" relative="1" as="geometry">
                        <mxPoint x="830" y="620" as="sourcePoint"/>
                        <mxPoint x="880" y="570" as="targetPoint"/>
                    </mxGeometry>
                </mxCell>
                <mxCell id="115" value="Apply Changes" style="text;html=1;strokeColor=none;fillColor=none;align=center;verticalAlign=middle;whiteSpace=wrap;rounded=0;" vertex="1" parent="1">
                    <mxGeometry x="641" y="525" width="70" height="35" as="geometry"/>
                </mxCell>
                <mxCell id="116" value="" style="endArrow=classic;html=1;exitX=0.5;exitY=0;exitDx=0;exitDy=0;entryX=0.5;entryY=1;entryDx=0;entryDy=0;" edge="1" parent="1" source="105" target="74">
                    <mxGeometry width="50" height="50" relative="1" as="geometry">
                        <mxPoint x="620" y="620" as="sourcePoint"/>
                        <mxPoint x="670" y="570" as="targetPoint"/>
                    </mxGeometry>
                </mxCell>
                <mxCell id="117" value="Apply Changes" style="text;html=1;strokeColor=none;fillColor=none;align=center;verticalAlign=middle;whiteSpace=wrap;rounded=0;" vertex="1" parent="1">
                    <mxGeometry x="561" y="590" width="70" height="35" as="geometry"/>
                </mxCell>
                <mxCell id="119" value="" style="edgeStyle=segmentEdgeStyle;endArrow=classic;html=1;curved=0;rounded=0;endSize=8;startSize=8;entryX=0;entryY=0.5;entryDx=0;entryDy=0;exitX=0.25;exitY=0;exitDx=0;exitDy=0;" edge="1" parent="1" source="73" target="65">
                    <mxGeometry width="50" height="50" relative="1" as="geometry">
                        <mxPoint x="530" y="300" as="sourcePoint"/>
                        <mxPoint x="700" y="270" as="targetPoint"/>
                        <Array as="points">
                            <mxPoint x="520" y="40"/>
                        </Array>
                    </mxGeometry>
                </mxCell>
                <mxCell id="120" value="Viewable Food Items" style="text;html=1;strokeColor=none;fillColor=none;align=center;verticalAlign=middle;whiteSpace=wrap;rounded=0;" vertex="1" parent="1">
                    <mxGeometry x="420" y="220" width="100" height="30" as="geometry"/>
                </mxCell>
                <mxCell id="121" value="2.5" style="swimlane;childLayout=stackLayout;horizontal=1;startSize=30;horizontalStack=0;rounded=1;fontSize=14;fontStyle=0;strokeWidth=2;resizeParent=0;resizeLast=1;shadow=0;dashed=0;align=center;" vertex="1" parent="1">
                    <mxGeometry x="1120" y="660" width="160" height="70" as="geometry"/>
                </mxCell>
                <mxCell id="122" value="Organize Food Menu&#10;Order/s" style="align=center;strokeColor=none;fillColor=none;spacingLeft=4;fontSize=12;verticalAlign=middle;resizable=0;rotatable=0;part=1;" vertex="1" parent="121">
                    <mxGeometry y="30" width="160" height="40" as="geometry"/>
                </mxCell>
                <mxCell id="123" value="" style="edgeStyle=segmentEdgeStyle;endArrow=classic;html=1;curved=0;rounded=0;endSize=8;startSize=8;exitX=1;exitY=0.5;exitDx=0;exitDy=0;entryX=0.25;entryY=0;entryDx=0;entryDy=0;" edge="1" parent="1" source="83" target="121">
                    <mxGeometry width="50" height="50" relative="1" as="geometry">
                        <mxPoint x="1040" y="690" as="sourcePoint"/>
                        <mxPoint x="1090" y="640" as="targetPoint"/>
                    </mxGeometry>
                </mxCell>
                <mxCell id="124" value="Order&lt;br&gt;Details" style="text;html=1;strokeColor=none;fillColor=none;align=center;verticalAlign=middle;whiteSpace=wrap;rounded=0;" vertex="1" parent="1">
                    <mxGeometry x="1101" y="583" width="60" height="30" as="geometry"/>
                </mxCell>
                <mxCell id="125" value="" style="edgeStyle=segmentEdgeStyle;endArrow=classic;html=1;curved=0;rounded=0;endSize=8;startSize=8;entryX=0.75;entryY=1;entryDx=0;entryDy=0;exitX=0.5;exitY=0;exitDx=0;exitDy=0;" edge="1" parent="1" source="84" target="74">
                    <mxGeometry width="50" height="50" relative="1" as="geometry">
                        <mxPoint x="850" y="660" as="sourcePoint"/>
                        <mxPoint x="900" y="610" as="targetPoint"/>
                        <Array as="points">
                            <mxPoint x="770" y="560"/>
                            <mxPoint x="600" y="560"/>
                        </Array>
                    </mxGeometry>
                </mxCell>
                <mxCell id="126" value="Establishment Employee" style="rounded=0;whiteSpace=wrap;html=1;" vertex="1" parent="1">
                    <mxGeometry x="1350" y="440" width="80" height="80" as="geometry"/>
                </mxCell>
                <mxCell id="127" value="3.1" style="swimlane;childLayout=stackLayout;horizontal=1;startSize=30;horizontalStack=0;rounded=1;fontSize=14;fontStyle=0;strokeWidth=2;resizeParent=0;resizeLast=1;shadow=0;dashed=0;align=center;" vertex="1" parent="1">
                    <mxGeometry x="1120" y="120" width="160" height="120" as="geometry"/>
                </mxCell>
                <mxCell id="128" value="Prepared Order Items" style="align=center;strokeColor=none;fillColor=none;spacingLeft=4;fontSize=12;verticalAlign=middle;resizable=0;rotatable=0;part=1;" vertex="1" parent="127">
                    <mxGeometry y="30" width="160" height="90" as="geometry"/>
                </mxCell>
                <mxCell id="129" value="3.2" style="swimlane;childLayout=stackLayout;horizontal=1;startSize=30;horizontalStack=0;rounded=1;fontSize=14;fontStyle=0;strokeWidth=2;resizeParent=0;resizeLast=1;shadow=0;dashed=0;align=center;" vertex="1" parent="1">
                    <mxGeometry x="1120" y="320" width="160" height="120" as="geometry"/>
                </mxCell>
                <mxCell id="130" value="Update Order Queue" style="align=center;strokeColor=none;fillColor=none;spacingLeft=4;fontSize=12;verticalAlign=middle;resizable=0;rotatable=0;part=1;" vertex="1" parent="129">
                    <mxGeometry y="30" width="160" height="90" as="geometry"/>
                </mxCell>
                <mxCell id="131" value="" style="edgeStyle=segmentEdgeStyle;endArrow=classic;html=1;curved=0;rounded=0;endSize=8;startSize=8;entryX=1;entryY=0.5;entryDx=0;entryDy=0;exitX=0.5;exitY=0;exitDx=0;exitDy=0;" edge="1" parent="1" source="126" target="128">
                    <mxGeometry width="50" height="50" relative="1" as="geometry">
                        <mxPoint x="1390" y="430" as="sourcePoint"/>
                        <mxPoint x="1230" y="290" as="targetPoint"/>
                        <Array as="points">
                            <mxPoint x="1390" y="195"/>
                        </Array>
                    </mxGeometry>
                </mxCell>
                <mxCell id="132" value="" style="edgeStyle=segmentEdgeStyle;endArrow=classic;html=1;curved=0;rounded=0;endSize=8;startSize=8;entryX=0.5;entryY=1;entryDx=0;entryDy=0;exitX=1;exitY=0.25;exitDx=0;exitDy=0;" edge="1" parent="1" source="122" target="126">
                    <mxGeometry width="50" height="50" relative="1" as="geometry">
                        <mxPoint x="1180" y="640" as="sourcePoint"/>
                        <mxPoint x="1230" y="590" as="targetPoint"/>
                    </mxGeometry>
                </mxCell>
                <mxCell id="133" value="" style="edgeStyle=segmentEdgeStyle;endArrow=classic;html=1;curved=0;rounded=0;endSize=8;startSize=8;entryX=1;entryY=0.25;entryDx=0;entryDy=0;exitX=0;exitY=0.5;exitDx=0;exitDy=0;" edge="1" parent="1" source="126" target="121">
                    <mxGeometry width="50" height="50" relative="1" as="geometry">
                        <mxPoint x="1180" y="640" as="sourcePoint"/>
                        <mxPoint x="1230" y="590" as="targetPoint"/>
                        <Array as="points">
                            <mxPoint x="1330" y="480"/>
                            <mxPoint x="1330" y="678"/>
                            <mxPoint x="1280" y="678"/>
                        </Array>
                    </mxGeometry>
                </mxCell>
                <mxCell id="134" value="Order&lt;br&gt;Details&lt;br&gt;&amp;amp; Items" style="text;html=1;strokeColor=none;fillColor=none;align=center;verticalAlign=middle;whiteSpace=wrap;rounded=0;" vertex="1" parent="1">
                    <mxGeometry x="1330" y="583" width="60" height="30" as="geometry"/>
                </mxCell>
                <mxCell id="136" value="" style="edgeStyle=segmentEdgeStyle;endArrow=classic;html=1;curved=0;rounded=0;endSize=8;startSize=8;exitX=1;exitY=0.25;exitDx=0;exitDy=0;entryX=0.5;entryY=0;entryDx=0;entryDy=0;" edge="1" parent="1" source="77" target="143">
                    <mxGeometry width="50" height="50" relative="1" as="geometry">
                        <mxPoint x="1130" y="570" as="sourcePoint"/>
                        <mxPoint x="1180" y="660" as="targetPoint"/>
                        <Array as="points">
                            <mxPoint x="880" y="480"/>
                            <mxPoint x="1232" y="480"/>
                        </Array>
                    </mxGeometry>
                </mxCell>
                <mxCell id="138" value="Order Items" style="text;html=1;strokeColor=none;fillColor=none;align=center;verticalAlign=middle;whiteSpace=wrap;rounded=0;" vertex="1" parent="1">
                    <mxGeometry x="1161" y="480" width="69" height="30" as="geometry"/>
                </mxCell>
                <mxCell id="139" value="" style="edgeStyle=segmentEdgeStyle;endArrow=classic;html=1;curved=0;rounded=0;endSize=8;startSize=8;entryX=1;entryY=0.5;entryDx=0;entryDy=0;exitX=0;exitY=0.5;exitDx=0;exitDy=0;" edge="1" parent="1" source="130" target="92">
                    <mxGeometry width="50" height="50" relative="1" as="geometry">
                        <mxPoint x="1040" y="610" as="sourcePoint"/>
                        <mxPoint x="1090" y="560" as="targetPoint"/>
                        <Array as="points">
                            <mxPoint x="1080" y="395"/>
                            <mxPoint x="1080" y="800"/>
                        </Array>
                    </mxGeometry>
                </mxCell>
                <mxCell id="140" value="&lt;span style=&quot;&quot;&gt;Order Status:&lt;/span&gt;&lt;br style=&quot;&quot;&gt;&lt;span style=&quot;&quot;&gt;Done&amp;nbsp;&lt;/span&gt;&lt;span style=&quot;&quot;&gt;or&amp;nbsp;&lt;/span&gt;&lt;span style=&quot;&quot;&gt;Cancelled&lt;/span&gt;" style="text;html=1;strokeColor=none;fillColor=none;align=center;verticalAlign=middle;whiteSpace=wrap;rounded=0;" vertex="1" parent="1">
                    <mxGeometry x="1082.25" y="750" width="108.5" height="40" as="geometry"/>
                </mxCell>
                <mxCell id="141" value="" style="edgeStyle=segmentEdgeStyle;endArrow=classic;html=1;curved=0;rounded=0;endSize=8;startSize=8;entryX=0.706;entryY=0.005;entryDx=0;entryDy=0;entryPerimeter=0;exitX=0;exitY=0.25;exitDx=0;exitDy=0;" edge="1" parent="1" source="130" target="83">
                    <mxGeometry width="50" height="50" relative="1" as="geometry">
                        <mxPoint x="1030" y="510" as="sourcePoint"/>
                        <mxPoint x="1080" y="460" as="targetPoint"/>
                    </mxGeometry>
                </mxCell>
                <mxCell id="142" value="Apply&lt;br&gt;Changes" style="text;html=1;strokeColor=none;fillColor=none;align=center;verticalAlign=middle;whiteSpace=wrap;rounded=0;" vertex="1" parent="1">
                    <mxGeometry x="1005" y="380" width="55" height="30" as="geometry"/>
                </mxCell>
                <mxCell id="143" value="&amp;nbsp;D3&lt;span style=&quot;white-space: pre;&quot;&gt;&#9;&lt;/span&gt;&amp;nbsp; Items Ordered" style="html=1;dashed=0;whitespace=wrap;shape=mxgraph.dfd.dataStoreID;align=left;spacingLeft=3;points=[[0,0],[0.5,0],[1,0],[0,0.5],[1,0.5],[0,1],[0.5,1],[1,1]];rounded=0;shadow=0;sketch=0;" vertex="1" parent="1">
                    <mxGeometry x="1172" y="530" width="120" height="40" as="geometry"/>
                </mxCell>
                <mxCell id="144" value="" style="endArrow=classic;html=1;entryX=0.703;entryY=-0.043;entryDx=0;entryDy=0;exitX=0.5;exitY=1;exitDx=0;exitDy=0;entryPerimeter=0;" edge="1" parent="1" source="143" target="121">
                    <mxGeometry width="50" height="50" relative="1" as="geometry">
                        <mxPoint x="1160" y="650" as="sourcePoint"/>
                        <mxPoint x="1210" y="600" as="targetPoint"/>
                    </mxGeometry>
                </mxCell>
                <mxCell id="145" value="Add Ordered Items" style="text;html=1;strokeColor=none;fillColor=none;align=center;verticalAlign=middle;whiteSpace=wrap;rounded=0;" vertex="1" parent="1">
                    <mxGeometry x="1232" y="590" width="54.5" height="40" as="geometry"/>
                </mxCell>
                <mxCell id="146" value="" style="edgeStyle=segmentEdgeStyle;endArrow=classic;html=1;curved=0;rounded=0;endSize=8;startSize=8;entryX=1;entryY=0.5;entryDx=0;entryDy=0;exitX=0.5;exitY=0;exitDx=0;exitDy=0;" edge="1" parent="1" source="127" target="65">
                    <mxGeometry width="50" height="50" relative="1" as="geometry">
                        <mxPoint x="1000" y="230" as="sourcePoint"/>
                        <mxPoint x="1050" y="180" as="targetPoint"/>
                        <Array as="points">
                            <mxPoint x="1200" y="40"/>
                        </Array>
                    </mxGeometry>
                </mxCell>
                <mxCell id="147" value="Ordered Items" style="text;html=1;strokeColor=none;fillColor=none;align=center;verticalAlign=middle;whiteSpace=wrap;rounded=0;" vertex="1" parent="1">
                    <mxGeometry x="900" y="40" width="55" height="30" as="geometry"/>
                </mxCell>
                <mxCell id="148" value="" style="endArrow=classic;html=1;entryX=0.5;entryY=0;entryDx=0;entryDy=0;exitX=0.5;exitY=1;exitDx=0;exitDy=0;" edge="1" parent="1" source="128" target="129">
                    <mxGeometry width="50" height="50" relative="1" as="geometry">
                        <mxPoint x="950" y="330" as="sourcePoint"/>
                        <mxPoint x="1000" y="280" as="targetPoint"/>
                    </mxGeometry>
                </mxCell>
                <mxCell id="149" value="Ordered Items" style="text;html=1;strokeColor=none;fillColor=none;align=center;verticalAlign=middle;whiteSpace=wrap;rounded=0;" vertex="1" parent="1">
                    <mxGeometry x="1332.5" y="310" width="55" height="30" as="geometry"/>
                </mxCell>
                <mxCell id="150" value="Ordered Items Description" style="text;html=1;strokeColor=none;fillColor=none;align=center;verticalAlign=middle;whiteSpace=wrap;rounded=0;" vertex="1" parent="1">
                    <mxGeometry x="1204.5" y="260" width="65.5" height="40" as="geometry"/>
                </mxCell>
            </root>
        </mxGraphModel>
    </diagram>
</mxfile>